<?xml version="1.0" encoding="utf-8"?>
<svg width="503.435" height="485.783" viewBox="0 0 503.435 485.783" fill="none" xmlns="http://www.w3.org/2000/svg">
  <g>
    <path d="M96.8387 318.08C84.5311 299.698 79.6818 280.308 86.0589 258.783C86.2902 282.666 96.3891 301.103 115.971 314.393C108.033 306.582 100.775 298.272 96.4869 287.714C92.0395 276.763 91.3514 265.76 95.403 254.595C98.9545 244.808 110.011 237.515 118.828 239.03C118.98 240.105 118.238 240.544 117.427 240.748C105.422 243.756 100.714 258.293 104.297 270.255C108.48 284.222 118.042 293.235 130.847 299.068C149.686 307.649 169.681 309.008 190.012 307.769C193.002 307.586 195.986 307.199 198.977 307.154C203.036 307.092 204.93 305.324 205.254 301.145C207.906 266.933 214.927 233.644 227.567 201.706C238.772 173.393 253.976 147.505 276.262 126.307C281.294 121.521 286.783 117.216 292.559 112.263C273.895 112.945 258.091 121.714 241.236 126.98C240.472 123.581 242.824 122.114 243.892 119.259C238.553 121.959 235.802 126.961 231.342 129.671C228.901 127.331 232.227 124.62 229.74 121.828C225.079 127.117 219.582 131.244 213.085 133.91C206.864 136.462 200.726 139.234 193.633 139.95C201.757 123.573 212.096 109.377 228.831 100.962C245.58 92.5405 263.074 92.4734 281.418 96.7799C271.197 88.4428 260.43 81.7518 249.155 74.6964C253.252 71.8622 257.054 72.8441 262.001 73.0731C254.045 69.5342 246.706 70.1043 239.141 69.4274C240.429 65.9162 243.89 65.4721 245.734 62.1788C230.341 61.6976 217.997 55.1368 205.722 45.1355C223.513 40.9758 240.108 40.8267 256.443 46.5114C273.287 52.3732 285.474 63.7423 294.154 79.5514C292.502 70.0308 290.849 60.5103 289.108 50.4779C293.106 51.4982 294.962 54.1775 297.734 56.6116C296.017 49.4652 289.34 46.1786 286.799 40.2028C289.697 38.2036 292.299 40.9024 295.688 39.4866C285.775 28.6598 282.672 15.4412 281.088 0C296.893 10.4511 308.643 22.6551 315.448 38.8238C322.349 55.2225 320.988 71.9503 313.812 89.638C331.703 76.9307 349.991 72.1527 370.23 76.6507C384.086 79.7302 396.286 86.0922 407.11 95.6081C393.634 98.9584 380.461 98.5202 367.398 93.3346C367.396 96.5119 370.187 98.2949 369.937 101.778C363.44 100.678 358.032 96.2993 350.252 95.5502C354.39 97.7815 357.848 98.7739 360.195 101.91C356.932 105.141 352.578 102.481 348.848 104.753C377.138 113.64 391.099 134.394 398.012 161.584C389.634 161.727 375.196 150.444 365.751 136.704C364.021 139.203 365.821 142.82 362.684 145.087C359.167 139.774 356.739 133.81 351.042 129.197C352.45 132.635 354.605 135.108 353.978 139.304C346.478 135.029 339.38 130.983 332.283 126.937C356.322 153.869 353.068 182.372 337.806 211.734C332.649 199.25 328.15 186.7 331.72 172.755C328.605 173.138 327.323 176.586 323.691 176.62C323.724 170.723 326.779 165.144 325.577 158.655C323.379 161.39 323.496 164.784 320.497 167.041C314.306 148.922 309.681 130.486 299.029 114.009C291.787 119.678 286.407 126.458 281.166 133.263C262.132 157.976 250.993 186.403 242.909 216.18C235.973 241.732 233.041 267.763 233.822 294.248C233.962 298.982 235.284 300.447 240.038 299.369C254.175 296.162 268.023 291.948 281.925 287.908C285.105 286.984 285.564 284.26 286.297 281.754C296.79 245.874 294.758 211.05 277.409 177.541C276.413 175.618 275.399 173.703 274.346 171.811C271.007 165.814 271.277 164.369 276.986 158.941C280.393 161.31 281.738 165.211 283.605 168.581C295.693 190.397 302.641 213.879 302.276 238.773C301.515 290.756 279.922 332.237 236.955 362.04C210.824 380.166 181.506 388.788 149.915 388.469C80.8193 387.771 22.1902 340.522 6.04807 279.649C-9.57031 220.752 5.14954 169.789 49.1754 127.496C54.6074 122.278 55.8429 122.549 61.5564 129.284C31.3464 154.233 13.9061 186.325 9.92349 225.426C8.61285 238.294 9.28476 251.141 11.7599 264.344C14.0573 262.43 14.4781 260.227 15.3827 258.337C27.5573 232.907 46.0816 214.136 72.8174 204.308C89.6544 198.119 106.816 196.648 124.17 202.615C147.296 210.567 155.091 232.328 150.816 252.674C150.015 256.489 147.977 259.782 145.485 262.741C143.662 264.907 141.15 266.447 138.436 265.447C135.108 264.221 132.52 264.8 129.596 266.506C126.046 268.577 122.38 268.018 119.563 264.975C116.782 261.971 115.494 258.282 117.628 254.425C119.651 250.767 123.237 250.023 127.149 250.533C132.212 251.192 134.825 248.782 134.162 244.104C133.931 242.479 133.322 241.135 131.606 240.816C124.921 239.573 123.561 234.661 123.273 228.952C122.997 223.457 120.706 219.158 115.192 215.777C115.705 218.214 116.088 219.902 116.413 221.601C117.068 225.021 116.114 227.91 113.27 229.968C110.352 232.078 107.34 231.634 104.338 229.987C100.933 228.12 99.3504 224.724 97.2377 221.755C93.8359 216.974 90.4835 216.391 85.2523 219.721C86.1302 222.321 87.1004 224.951 87.9034 227.63C89.0851 231.574 87.4402 234.439 84.1826 236.553C80.9527 238.649 78.1859 237.554 75.5917 235.238C73.4841 233.356 71.4778 231.303 69.1487 229.74C65.8093 227.499 62.1803 226.709 57.9982 229.487C62.0761 234.387 66.1773 239.396 60.7444 245.651C57.4777 249.412 53.512 249.851 46.7543 247.127C44.4211 250.669 41.6132 253.594 36.8259 254.241C34.1675 254.601 34.429 257.005 35.8771 258.93C37.3351 260.868 39.6624 261.6 41.5603 262.93C44.694 265.126 46.2593 268.145 45.5744 271.964C44.935 275.53 42.276 277.116 38.9961 278.002C35.6887 278.896 32.418 278.635 29.0908 278.173C21.177 277.072 16.3418 283.13 19.2589 290.5C24.833 304.583 32.9736 317.113 42.5942 328.731C43.228 329.496 43.9785 330.172 44.7275 330.829C44.9291 331.007 45.3248 330.963 46.0552 331.1C43.8106 311.387 45.8336 292.247 52.7659 273.727C53.45 271.899 53.7499 269.817 56.6316 267.787C55.9773 291.91 61.7152 313.344 77.6526 331.238C69.2554 313.732 64.5493 295.793 69.9552 276.293C76.6404 309.291 97.018 331.007 125.902 345.809C115.315 337.742 104.872 329.441 96.8387 318.08C96.8387 318.08 96.8387 318.08 96.8387 318.08Z" fill="#3F623F" transform="translate(96.325 5.896)" />
    <path d="M383.483 446.01C352.042 465.918 318.171 478.509 281.736 483.454C237.631 489.44 194.843 483.863 153.487 466.997C94.9093 443.108 51.7203 402.783 23.7877 346.195C9.9324 318.126 2.31311 288.308 0.438416 256.977C-2.12625 214.115 6.62231 173.6 25.0849 135.06C39.6963 104.559 59.9639 78.2329 86.1616 56.9282C115.07 33.419 147.637 16.7612 184.026 7.74696C206.654 2.14162 229.532 -0.762245 252.779 0.172981C291.445 1.72852 328.058 11.4829 362.355 29.4353C368.461 32.6314 370.12 39.6634 372.745 45.8959C366.364 42.523 360.053 39.0099 353.59 35.8005C317.453 17.8541 279.215 8.70084 238.845 9.74868C194.551 10.8983 153.76 23.8893 116.262 47.5072C88.767 64.8253 66.0128 86.9037 48.2085 114.066C27.5895 145.522 15.3429 179.937 10.9789 217.341C5.77307 261.961 13.3453 304.382 33.2393 344.319C56.5206 391.055 91.5392 426.53 138.461 450.166C163.117 462.586 188.868 471.352 216.184 474.648C262.154 480.196 306.492 473.874 348.711 454.228C379.357 439.967 406.126 420.594 428.135 394.822C454.321 364.159 471.594 329.077 479.385 289.54C487.088 250.446 485.31 211.73 473.159 173.624C472.485 171.51 471.321 169.388 471.77 166.586C477.961 168.911 482.851 170.935 484.816 178.534C498.744 232.381 496.179 284.993 474.662 336.487C459.484 372.81 436.999 403.779 406.862 429.139C399.588 435.261 391.765 440.648 383.483 446.01C383.483 446.01 383.483 446.01 383.483 446.01Z" fill="#3F623F" />
    <path d="M15.2113 36.3509C17.0946 37.1505 18.7282 37.6238 20.1539 38.454C27.4242 42.6879 34.7595 43.3774 42.327 39.2539C44.877 37.8644 47.3562 38.0759 49.856 39.6885C51.0032 40.4286 52.3109 41.5741 54.6447 40.2116C37.4135 28.1487 20.4798 16.2939 2.70807 3.85248C8.91003 0.934509 13.9147 -1.53148 19.9886 1.15102C36.7451 8.55156 53.607 15.7162 70.3001 23.2556C73.2302 24.579 75.4262 24.4508 78.2415 23.3091C90.4164 18.372 102.492 13.0676 115.704 11.3396C118.698 10.948 121.682 10.694 124.636 11.4364C130.74 12.9703 132.027 17.1423 127.632 21.5972C123.859 25.4221 119.315 28.2762 114.485 30.5705C107.417 33.9274 100.317 37.2339 93.1003 40.2499C89.9682 41.5589 87.7961 43.4901 86.2576 46.4175C82.9261 52.7571 79.5044 59.0493 76.1347 65.3689C75.2717 66.9873 74.4947 68.5672 72.5936 69.3585C67.0318 71.6733 65.4524 70.6991 65.2082 64.6594C65.0738 61.3356 64.9112 58.0119 64.6759 54.6941C64.6198 53.9036 64.2218 53.1373 63.9727 52.3326C61.1833 51.7755 58.9485 53.0937 56.6486 53.8451C44.5727 57.7906 32.2714 60.5868 19.549 61.2081C16.9044 61.3374 14.2163 61.1939 11.5858 60.8706C5.42133 60.1132 5.3634 60.0119 7.7243 53.9858C8.43509 52.1716 7.90692 50.7718 7.10477 49.2702C4.76569 44.8916 2.44699 40.5022 0 35.8903C5.15701 31.8298 10.0127 33.8577 15.2113 36.3509C15.2113 36.3509 15.2113 36.3509 15.2113 36.3509Z" fill="#D99C2B" transform="translate(144.418 117.119)" />
    <path d="M132.948 12.7368C133.495 17.6355 129.178 20.878 124.711 19.1937C114.406 15.3089 103.823 12.5022 92.9297 10.9518C65.5633 7.05678 39.2958 10.9232 14.1731 22.4347C8.43668 25.0631 5.95486 24.6673 0 19.0702C43.5302 -4.09935 87.5162 -6.09035 132.948 12.7368C132.948 12.7368 132.948 12.7368 132.948 12.7368Z" fill="#3F623F" transform="translate(170.806 95.546)" />
    <path d="M14.3348 35.191C17.4703 32.3436 20.541 29.8271 23.6117 27.3106C23.1562 26.7478 22.7007 26.1849 22.2451 25.6221C19.1215 26.9337 15.9917 28.2311 12.8766 29.5626C11.2124 30.274 9.68542 30.4626 8.39905 28.8334C7.04431 27.1176 7.93579 25.749 8.99701 24.3697C11.0133 21.7489 13.0154 19.1172 15.8044 15.4681C11.4737 16.6947 9.06586 18.8967 6.49402 20.6313C3.99484 22.317 2.35922 21.9796 0.711884 19.5602C-1.034 16.9959 0.76944 16.0607 2.49609 14.9194C9.29858 10.4229 16.0816 5.89709 22.871 1.38086C24.5729 0.248779 26.2333 -1.0332 28.0104 1.33041C29.5148 3.33139 31.4046 5.12018 29.2628 7.8894C26.8769 10.9745 24.6709 14.1988 21.5216 18.5604C26.118 16.6487 29.4277 15.5545 32.4603 13.9396C36.3029 11.8933 37.8349 14.569 39.7372 16.8871C41.7977 19.3979 39.8573 20.7724 38.3047 22.2732C33.1595 27.2468 28.024 32.2307 22.854 37.1784C18.3514 41.4872 17.3379 41.2755 14.3348 35.191C14.3348 35.191 14.3348 35.191 14.3348 35.191Z" fill="#D99C2B" transform="translate(71.192 345.368)" />
    <path d="M27.7438 33.55C19.1056 28.2389 10.8001 22.9967 2.51068 17.7292C0.945618 16.7346 -0.805725 15.6924 0.4021 13.3968C1.50964 11.2918 2.75623 9.23022 5.74316 9.99005C9.11499 10.8477 12.4875 11.7025 16.3213 11.8801C13.8917 10.1692 11.4893 8.41786 9.02411 6.75996C6.99887 5.39796 6.50085 3.94482 8.00595 1.77795C9.48859 -0.356522 11.013 -0.45665 13.0514 0.879089C21.1306 6.17361 29.2323 11.4341 37.3522 16.6662C38.8624 17.6393 39.4824 18.808 38.5021 20.4032C37.3061 22.3494 36.3586 24.6795 33.2154 23.802C29.2813 22.7037 25.2984 21.78 20.1293 20.4765C23.6426 22.8459 26.0997 24.5043 28.5582 26.1607C32.7968 29.0164 32.6992 30.5496 27.7438 33.55C27.7438 33.55 27.7438 33.55 27.7438 33.55Z" fill="#D99C2B" transform="translate(66.316 116.093)" />
    <path d="M10.3898 25.5499C11.5854 29.6227 9.51788 29.9158 6.7702 29.0121C4.49109 28.2625 3.44092 26.2828 3.22687 23.9975C2.95706 21.1163 4.69583 19.4312 7.01187 18.0904C9.29205 16.7704 12.5978 17.0772 14.1617 13.7913C11.1252 11.958 8.81357 14.0275 6.418 14.506C3.65475 15.0579 1.19116 15.6487 0.21875 11.8314C-0.669891 8.3429 1.26068 7.56299 3.98666 6.82996C11.5357 4.80005 19.0479 2.62793 26.5434 0.406311C29.8815 -0.583069 32.0295 0.116608 32.7402 3.81604C32.989 5.11118 33.6122 6.32953 33.9723 7.60889C36.5624 16.812 31.3606 22.9291 21.8835 21.4879C17.2686 20.7861 14.4971 24.6895 10.3898 25.5499C10.3898 25.5499 10.3898 25.5499 10.3898 25.5499ZM27.1772 9.24164C25.9935 8.63284 24.96 9.31335 23.8899 9.63519C22.6473 10.0089 21.2017 10.2402 21.0412 11.8736C20.9589 12.712 21.5101 13.435 22.3161 13.7962C23.6386 14.3889 24.8805 14.0045 26.0443 13.3214C27.4306 12.5077 28.3134 11.4373 27.1772 9.24164C27.1772 9.24164 27.1772 9.24164 27.1772 9.24164Z" fill="#D99C2B" transform="translate(36.539 278.846)" />
    <path d="M20.9912 6.52692C23.4352 13.2899 25.7578 19.6909 27.9877 26.124C28.5651 27.7896 29.4829 29.6469 27.0483 30.8291C24.9391 31.8533 22.9578 32.2892 21.1954 30.2256C18.5121 27.0837 15.8258 23.9446 12.3954 21.1094C13.5288 24.2235 14.5599 27.3799 15.8269 30.4386C16.909 33.0509 16.0096 34.5 13.5699 35.4708C11.0997 36.4538 9.76563 35.3357 8.98657 33.1528C6.0849 25.0214 3.20062 16.8838 0.337769 8.73865C-0.1922 7.23096 -0.296326 5.78308 1.51917 4.95251C3.58759 4.00629 5.58289 3.51453 7.53223 5.28223C10.1887 7.69116 11.9452 11.0068 15.4193 13.1308C14.5845 10.6411 13.8636 8.48248 13.1368 6.32599C12.3319 3.93756 11.2061 1.68408 14.9021 0.374146C18.5218 -0.908813 19.2536 1.32263 20.0803 3.80438C20.3425 4.59167 20.5841 5.38586 20.9912 6.52692C20.9912 6.52692 20.9912 6.52692 20.9912 6.52692Z" fill="#D99C2B" transform="translate(296.752 413.073)" />
    <path d="M23.0406 7.73495C23.9375 13.2565 28.8291 13.9273 32.2903 15.3035C34.408 16.1455 37.1889 15.4902 36.7499 18.6779C36.3463 21.609 33.9199 22.9875 30.8765 23.0167C28.7011 23.0375 27.1937 21.6585 25.4708 20.6743C23.7944 19.7167 22.3916 18.1065 19.6959 18.2156C20.6955 21.4368 23.3339 22.9252 25.4127 24.8069C27.0991 26.3335 28.1995 27.7531 26.1437 29.7639C24.3763 31.4926 22.7198 32.9821 20.2487 30.6044C14.0056 24.5973 7.65161 18.7056 1.3653 12.7432C0.534912 11.9556 -0.303589 11.1476 0.108154 9.73001C0.943481 6.85419 8.92633 0.276062 12.2808 0.0341492C17.7205 -0.358185 20.9552 2.65536 23.0406 7.73495C23.0406 7.73495 23.0406 7.73495 23.0406 7.73495ZM11.8 7.30447C8.26324 8.78885 10.4662 10.2447 11.8918 11.558C12.9122 12.4979 14.1262 14.2038 15.567 12.3718C16.9774 10.5784 15.3812 9.33514 14.1243 8.25049C13.6377 7.83051 12.9691 7.62143 11.8 7.30447C11.8 7.30447 11.8 7.30447 11.8 7.30447Z" fill="#D99C2B" transform="translate(376.998 360.762)" />
    <path d="M21.3832 5.50516C23.8036 9.702 26.395 13.3922 27.9063 17.6481C30.1516 23.9708 28.5963 27.8376 22.6969 30.7033C21.2049 31.428 19.6118 31.9716 18.1926 32.8135C15.3452 34.5027 13.6592 33.493 12.2521 30.7989C8.56561 23.7405 4.841 16.6988 0.952393 9.7507C-0.73999 6.72678 -0.241821 4.83469 2.97028 3.54633C4.50586 2.93042 5.92987 2.04059 7.45386 1.39078C13.6472 -1.24994 17.1427 -0.264526 21.3832 5.50516C21.3832 5.50516 21.3832 5.50516 21.3832 5.50516ZM20.5499 20.6742C17.4117 16.3186 16.9877 9.69833 11.2442 7.51688C10.6944 7.91129 10.1447 8.30576 9.59485 8.70016C12.5792 14.1902 15.5635 19.6801 18.4917 25.0668C21.0918 24.2747 21.2708 22.9432 20.5499 20.6742C20.5499 20.6742 20.5499 20.6742 20.5499 20.6742Z" fill="#D99C2B" transform="translate(323.388 403.953)" />
    <path d="M17.9713 5.75005C20.1823 12.4665 21.2799 19.0446 22.2635 25.6051C22.9135 29.9402 21.0667 33.4499 16.5718 34.9868C11.6393 36.6734 6.8479 35.3537 4.99014 30.9567C1.93884 23.7348 0.425323 16.0022 0.0124207 8.1933C-0.242218 3.37779 3.45844 1.20963 7.6257 0.288467C12.2492 -0.733536 15.7937 0.93074 17.9713 5.75005C17.9713 5.75005 17.9713 5.75005 17.9713 5.75005ZM8.52374 12.8804C10.1926 18.046 9.15463 24.1357 13.4805 29.1579C15.3578 23.7946 11.69 9.48889 8.37766 7.4445C6.93314 9.02074 8.37515 10.5706 8.52374 12.8804C8.52374 12.8804 8.52374 12.8804 8.52374 12.8804Z" fill="#D99C2B" transform="translate(195.637 38.129)" />
    <path d="M11.8772 0.78479C13.7087 1.22882 15.1673 1.54755 16.6098 1.92743C23.4648 3.73297 26.1618 10.3268 22.0886 16.2341C18.941 20.7993 18.473 25.1136 21.3081 29.873C22.5849 32.0165 21.8946 33.9391 19.6228 34.6533C16.4882 35.6387 13.6679 34.8539 12.0293 31.7032C11.2276 30.1616 11.6611 28.4774 11.7949 26.8145C11.9451 24.9473 12.8225 22.8749 10.7859 21.0638C8.11823 22.997 8.63324 26.1379 7.94598 28.6525C7.18549 31.4352 5.72296 31.9891 3.22046 31.5362C0.492218 31.0425 -0.400482 29.4092 0.159058 26.8811C1.94968 18.7906 3.79456 10.7122 5.61758 2.62878C6.5 -1.28394 9.14774 0.155334 11.8772 0.78479C11.8772 0.78479 11.8772 0.78479 11.8772 0.78479ZM14.4644 8.0166C10.6327 9.15918 11.5488 11.7784 12.1618 14.7832C15.8189 13.4333 16.9698 11.5392 14.4644 8.0166C14.4644 8.0166 14.4644 8.0166 14.4644 8.0166Z" fill="#D99C2B" transform="translate(194.572 419.004)" />
    <path d="M25.8424 5.6416C36.8975 6.41479 41.3679 13.7041 36.0724 21.603C33.515 25.4176 26.9082 26.6636 23.1111 24.155C21.319 22.971 21.4512 21.4535 21.973 19.7833C22.4368 18.2987 23.0609 16.9116 25.0151 17.1346C25.8387 17.2286 26.6461 17.4757 27.4702 17.5518C28.7073 17.666 29.9383 17.4751 30.1107 15.9768C30.2877 14.4394 28.9099 14.1659 27.8478 13.7694C24.9041 12.6706 22.7056 14.5637 20.4573 15.8384C16.4754 18.0961 12.4417 19.969 7.71246 19.1199C1.95206 18.0856 -0.860016 13.9757 0.231628 8.32715C1.41638 2.19675 5.61865 -0.830811 11.1725 0.19754C14.7919 0.867706 15.4019 2.70737 14.1107 5.87146C13.4196 7.56482 12.4301 8.23163 10.6761 7.84085C9.31641 7.53793 8.00952 7.42569 7.12466 9.33246C8.84583 12.5918 11.439 11.8617 14.1024 10.5812C17.8113 8.79797 21.0018 5.83331 25.8424 5.6416C25.8424 5.6416 25.8424 5.6416 25.8424 5.6416Z" fill="#D99C2B" transform="translate(42.16 168.308)" />
    <path d="M8.66312 4.25113C13.5532 -0.830078 18.4054 -1.2897 23.9815 2.51553C28.4602 5.57181 29.3772 9.85907 26.3285 15.674C24.1734 19.7845 21.7903 23.8274 19.0558 27.5694C15.2729 32.7461 10.5949 33.3451 5.08972 29.8988C-0.102661 26.6484 -1.38083 22.3059 1.52536 16.6712C3.65622 12.5399 6.13379 8.58746 8.66312 4.25113C8.66312 4.25113 8.66312 4.25113 8.66312 4.25113ZM16.5599 16.6848C17.6523 14.8221 18.808 12.9926 19.8142 11.0844C20.4448 9.88879 20.9295 8.47031 19.4691 7.52377C17.9442 6.53543 16.4473 7.07977 15.5765 8.48969C12.9593 12.7272 10.4531 17.035 7.98798 21.3634C7.26212 22.638 7.35864 24.013 8.77451 24.8404C10.3086 25.7367 11.3659 24.6438 12.1267 23.5818C13.5757 21.5595 14.8358 19.4019 16.5599 16.6848C16.5599 16.6848 16.5599 16.6848 16.5599 16.6848Z" fill="#D99C2B" transform="translate(136.727 398.601)" />
    <path d="M0.681671 12.9734C-0.697784 10.495 0.10321 9.22778 2.30234 8.53522C11.0292 5.78696 19.7599 3.05045 28.4725 0.25769C32.0384 -0.885345 32.6553 2.02454 33.8258 4.07846C34.9438 6.04041 36.5761 7.97849 33.7929 10.1268C26.5469 15.7198 19.4151 21.4605 12.2243 27.1253C10.8488 28.209 9.41702 28.397 8.42422 26.6907C7.48965 25.0845 5.51184 23.5467 7.49362 21.4205C8.05579 20.8174 8.76837 20.3544 9.41147 19.8266C10.6195 18.8351 11.7253 17.8543 10.6083 16.0723C9.59155 14.4503 8.27429 14.5174 6.70688 15.0695C4.35507 15.8978 2.0918 16.2302 0.681671 12.9734C0.681671 12.9734 0.681671 12.9734 0.681671 12.9734Z" fill="#D99C2B" transform="translate(54.218 324.205)" />
    <path d="M8.00784 23.8823C7.80698 25.7324 8.25638 26.9847 9.89075 27.1641C11.7188 27.3647 12.5092 25.9457 13.06 24.5198C15.1534 19.1003 17.2285 13.673 19.2328 8.22009C20.2198 5.53461 21.4391 3.94995 24.7452 5.25977C28.1006 6.58905 27.7065 8.49091 26.5891 11.1512C24.3396 16.507 22.4282 22.0042 20.2058 27.3721C17.6567 33.5291 13.147 35.4225 6.91089 33.1765C0.737701 30.953 -1.36319 26.6324 0.863953 20.1224C2.63678 14.9403 4.67636 9.84784 6.66345 4.74121C8.93555 -1.09784 9.39844 -1.20352 15.3912 2.57037C13.7096 9.75928 10.3602 16.4648 8.00784 23.8823C8.00784 23.8823 8.00784 23.8823 8.00784 23.8823Z" fill="#D99C2B" transform="translate(165.421 409.623)" />
    <path d="M35.3638 12.9296C33.6916 16.5753 31.7723 18.9056 27.5934 16.7207C26.2284 16.007 24.6901 16.3778 23.7777 18.0421C22.9293 19.5896 23.7744 20.5757 24.7246 21.5406C26.2547 23.0945 28.0134 24.4242 26.1808 27.006C24.7301 29.0498 23.4133 29.6987 21.3755 27.8375C14.7435 21.7803 8.0874 15.7494 1.40735 9.74539C-0.478088 8.05078 -0.351196 6.33682 1.08899 4.51047C2.65283 2.52737 3.56488 -1.01413 6.96082 0.276062C16.4154 3.8681 25.7242 7.84445 35.0764 11.7032C35.2855 11.7895 35.3264 12.2835 35.3638 12.9296C35.3638 12.9296 35.3638 12.9296 35.3638 12.9296Z" fill="#D99C2B" transform="translate(397.114 341.075)" />
    <path d="M16.9745 17.4981C18.7021 21.6811 20.6754 25.3657 21.4355 29.8162C18.2057 31.717 15.2122 33.1454 13.1162 28.3456C12.4351 26.7861 11.3239 25.985 9.56067 26.3834C7.85175 26.7694 7.67627 28.1441 7.74011 29.4948C7.90948 33.0822 5.46149 33.5978 2.82648 33.5983C-0.683716 33.5989 0.211304 30.755 0.181641 28.8096C0.0650024 21.1551 0.297058 13.491 0.00775146 5.84521C-0.14801 1.73004 2.06683 1.00659 5.34772 0.28186C8.72412 -0.464111 10.7635 0.155457 11.9116 3.53827C13.4607 8.10278 15.1858 12.6076 16.9745 17.4981C16.9745 17.4981 16.9745 17.4981 16.9745 17.4981Z" fill="#D99C2B" transform="translate(274.457 421.302)" />
    <path d="M27.286 12.5905C34.8908 19.0645 34.577 26.4826 26.8765 30.3405C23.0094 32.2778 19.3408 31.7646 16.2068 28.9556C11.6222 24.8464 7.06534 20.6774 2.82471 16.2216C-1.08173 12.117 -0.830841 6.81029 2.92511 3.32764C7.66885 -1.07094 12.8726 -1.0976 17.0697 3.18053C18.519 4.65784 19.3274 6.04012 17.6337 7.88405C16.2062 9.43806 14.9348 10.8412 12.6203 9.11003C11.4025 8.19916 9.71494 6.53728 8.35165 8.57277C7.12326 10.4069 9.06628 11.5643 10.2259 12.6554C13.7421 15.964 17.287 19.2443 20.8987 22.4477C21.8621 23.3022 23.1295 24.2682 24.4546 23.1263C25.8184 21.9511 25.0809 20.6133 24.1506 19.6257C19.9829 15.2016 23.2923 13.7937 27.286 12.5905C27.286 12.5905 27.286 12.5905 27.286 12.5905Z" fill="#D99C2B" transform="translate(90.339 92.183)" />
    <path d="M17.1556 0.832886C23.1736 4.46957 25.4339 8.79086 24.3228 14.0062C23.2038 19.2585 19.0348 23.3027 13.9291 24.0888C8.93613 24.8575 4.20175 22.6817 1.60278 18.4239C-0.829132 14.4396 -0.4505 8.12521 2.44577 4.36731C5.58832 0.289917 10.7495 -1.0394 17.1556 0.832886C17.1556 0.832886 17.1556 0.832886 17.1556 0.832886Z" fill="#D99C2B" transform="translate(40.427 231.349)" />
    <path d="M12.7287 0C20.4121 1.79059 24.2399 5.44772 24.7793 11.1447C25.2197 15.7962 21.98 20.9759 17.3353 23.046C10.6913 26.0071 3.11902 23.0951 0.820496 16.695C-1.70178 9.67191 1.75824 2.71655 8.90887 0.543884C10.002 0.211731 11.18 0.159058 12.7287 0C12.7287 0 12.7287 0 12.7287 0Z" fill="#D99C2B" transform="translate(432.019 231.165)" />
    <path d="M19.6494 21.4368C20.373 25.8315 20.1436 29.7797 16.0139 31.7289C11.7668 33.7335 7.23322 33.6734 3.21042 30.8758C0.503815 28.9935 -0.745575 26.0128 0.460052 22.9792C1.65775 19.9658 4.58743 21.27 6.80029 21.3594C8.26447 23.1332 7.1539 26.2228 10.1141 26.6738C11.0548 26.8172 11.7158 26.072 11.8759 25.2256C12.3983 22.463 10.4701 20.9987 8.66354 19.4974C6.3656 17.5878 3.86234 15.8801 2.24408 13.2797C-0.441345 8.96454 0.542389 3.7771 4.4512 1.4621C9.21579 -1.35968 17.1905 0.0776978 19.1593 4.27338C20.0426 6.15601 21.2381 8.67963 18.6502 10.0001C16.2354 11.2323 13.4144 11.6622 12.2266 7.93695C12.0487 7.37909 11.474 6.94775 10.749 6.03973C7.71274 8.68536 9.37146 10.4207 11.3825 11.9761C14.669 14.5179 18.2625 16.7509 19.6494 21.4368C19.6494 21.4368 19.6494 21.4368 19.6494 21.4368Z" fill="#D99C2B" transform="translate(224.458 423.836)" />
    <path d="M6.96124 12.5575C10.9187 13.9159 14.5032 15.1559 19.1193 16.7529C15.9351 12.8014 12.5532 10.8442 9.43073 8.58231C4.93188 5.32339 4.87421 4.65643 8.7113 0C11.0792 0.0747375 12.4754 1.93988 14.1508 3.19775C20.4058 7.89401 26.486 12.827 32.8126 17.4222C35.9261 19.6837 34.6689 21.7468 33.4596 24.2655C32.1954 26.8985 30.7943 28.0621 27.6508 27.0164C19.9224 24.4452 12.0593 22.2807 4.31146 19.7645C2.35876 19.1304 -0.85553 19.1094 0.211853 15.4741C1.17944 12.1786 3.2041 10.8051 6.96124 12.5575C6.96124 12.5575 6.96124 12.5575 6.96124 12.5575Z" fill="#D99C2B" transform="translate(407.875 314.651)" />
    <path d="M7.34808 25.0603C7.73102 26.4999 7.5589 27.821 9.35254 28.4152C12.174 25.7957 12.759 23.0494 9.41455 20.3222C5.74188 17.3272 6.58929 15.2055 10.3502 13.2579C12.9514 11.9109 13.8404 9.94427 12.381 7.40329C10.8218 6.80142 10.2803 7.67049 9.62817 8.45712C7.72943 10.7476 5.12286 10.3195 3.38385 8.92596C1.23193 7.20152 2.85223 4.87656 4.04437 3.1337C6.31152 -0.180756 11.9598 -0.956085 16.3744 1.24016C20.3212 3.20367 22.2859 7.74585 20.1988 12.377C18.6105 15.9012 18.3781 18.8658 19.1321 22.6775C19.9152 26.6361 19.1817 31.201 15.3342 33.9186C12.0816 36.216 8.40973 35.958 4.84283 34.3463C2.76648 33.4081 1.22363 31.9091 0.609009 29.692C0.031189 27.6077 -0.71637 25.1035 1.4491 23.7458C3.25269 22.6149 5.62091 22.5125 7.34808 25.0603C7.34808 25.0603 7.34808 25.0603 7.34808 25.0603Z" fill="#D99C2B" transform="translate(258.47 35.93)" />
    <path d="M12.8045 13.2617C14.4967 14.4769 15.6126 13.4671 16.611 12.6879C18.6095 11.1282 20.2719 10.5875 21.9808 13.1464C23.6154 15.5942 22.1879 16.7598 20.4026 17.9642C19.723 18.4227 19.1083 18.9771 18.3022 19.616C18.8415 22.4438 20.6456 24.2393 22.5583 25.8463C24.7715 25.4897 25.9339 23.9193 27.4596 22.9624C29.216 21.8609 30.5557 22.1171 31.7088 23.8126C32.8256 25.4545 33.6143 27.112 31.5704 28.5837C28.5985 30.7234 25.5707 32.7865 22.5444 34.8495C20.5449 36.2124 19.0583 35.2233 17.8616 33.6188C12.1857 26.0087 6.55289 18.3664 0.887268 10.7486C-0.726868 8.57822 -0.0386963 6.73517 2.1431 5.91553C6.19641 4.39281 8.28766 -2.15002 13.84 0.718811C16.4993 2.09282 15.7502 4.71826 13.2404 6.24951C9.9115 8.28058 10.049 10.514 12.8045 13.2617C12.8045 13.2617 12.8045 13.2617 12.8045 13.2617Z" fill="#D99C2B" transform="translate(114.194 70.707)" />
    <path d="M18.593 5.60448C21.1069 14.3403 15.0101 20.3623 12.5839 27.2854C14.0842 29.0326 15.893 28.2183 17.4405 28.4979C19.2691 28.8284 19.9285 29.934 19.9302 31.6399C19.9318 33.3555 19.2257 34.6715 17.4315 34.7693C13.1217 35.004 8.76163 35.4745 4.49939 35.0574C1.15262 34.7299 1.59473 31.9813 2.76389 29.6815C5.09723 25.0917 7.84164 20.6841 9.82428 15.9532C10.9372 13.2975 13.2171 9.95781 9.46283 7.2191C8.98132 7.56319 8.56793 7.69753 8.47821 7.94785C7.6459 10.2699 7.21912 12.9321 3.76901 12.6704C2.40344 12.5668 1.0509 12.5049 0.488098 10.9661C-0.583862 8.03519 0.200714 5.4097 1.95602 3.00385C4.90555 -1.03886 15.9174 -1.7515 18.593 5.60448C18.593 5.60448 18.593 5.60448 18.593 5.60448Z" fill="#D99C2B" transform="translate(228.023 34.614)" />
    <path d="M11.6251 0C18.3115 2.01556 21.0214 7.08342 19.9442 15.0568C19.4865 18.4449 18.7942 21.8014 18.2641 24.8517C19.9854 26.3825 21.2319 25.4451 22.4441 25.1309C24.6414 24.5612 25.8656 25.3661 26.5952 27.4791C27.3827 29.7601 26.4706 30.9269 24.4106 31.6307C21.4294 32.6492 18.4643 33.7145 15.4876 34.7463C10.8333 36.3598 8.94205 34.8174 9.70813 29.8204C10.4615 24.9068 11.6205 20.0509 12.2517 15.1249C12.6586 11.9495 12.8025 8.52541 8.99716 7.01469C7.15347 8.15366 8.06229 9.56407 7.96783 10.8071C7.77121 13.394 5.56967 13.8034 3.69836 14.2059C1.86148 14.6009 1.16562 13.0667 0.616486 11.6071C-1.74036 5.34247 2.81625 0.33548 11.6251 0C11.6251 0 11.6251 0 11.6251 0Z" fill="#D99C2B" transform="translate(163.982 47.048)" />
    <path d="M30.4648 23.7875C27.1668 24.6647 24.7513 22.8768 22.1493 21.9645C15.8815 19.767 9.69745 17.3312 3.43494 15.118C0.316162 14.0159 -0.840271 12.3231 0.63739 9.09793C1.67188 6.84015 2.42749 4.45209 3.26233 2.10608C4.07794 -0.186157 5.67029 -0.342773 7.65363 0.390503C9.62592 1.11969 10.0961 2.40845 9.26654 4.31314C8.43591 6.2204 7.69287 8.05453 10.5032 9.19064C13.0303 10.2123 14.6503 9.6637 15.5507 7.0769C16.2484 5.07217 17.6437 4.64883 19.5002 5.40414C21.3877 6.17194 22.0352 7.57083 21.1255 9.39627C19.7884 12.0797 21.0475 13.2576 23.3972 14.3083C26.0352 15.488 27.4827 14.6526 28.3728 12.1425C29.2278 9.73123 30.5817 8.61783 33.2962 9.80804C36.183 11.0738 34.9773 12.9577 34.2895 14.7599C33.1654 17.7051 31.936 20.6102 30.4648 23.7875C30.4648 23.7875 30.4648 23.7875 30.4648 23.7875Z" fill="#D99C2B" transform="translate(418.818 295.95)" />
    <path d="M15.4147 5.68829C12.9697 7.81107 14.7209 9.17578 15.847 10.5161C19.8041 15.2263 23.783 19.9194 27.822 24.5595C29.5133 26.5027 29.8836 28.0605 27.6634 30.0166C25.2959 32.1025 23.6836 31.5832 21.8406 29.4171C17.9613 24.8577 13.9661 20.3965 9.99939 15.9118C8.55493 14.2789 7.2157 12.4936 4.59644 14.2523C2.62317 15.5774 1.59436 13.8701 0.595093 12.5513C-0.598572 10.9761 0.170593 9.77921 1.43146 8.70248C4.21411 6.32599 6.96704 3.91403 9.77972 1.57373C10.8939 0.646698 12.1019 -0.748505 13.6876 0.487335C15.2183 1.68042 17.0275 2.9881 15.4147 5.68829C15.4147 5.68829 15.4147 5.68829 15.4147 5.68829Z" fill="#D99C2B" transform="translate(358.831 376.316)" />
    <path d="M7.95633 16.2543C9.43781 14.217 10.6443 12.418 12.0017 10.7412C13.5089 8.87936 14.4791 7.20377 12.0177 5.29233C10.1981 3.87924 11.0923 2.39679 12.2506 1.01212C13.5128 -0.496582 14.8649 -0.110352 16.2065 0.82016C19.619 3.1868 23.0178 5.57355 26.4063 7.97443C27.7858 8.95181 28.4075 10.1938 27.4625 11.8199C26.538 13.4108 25.3546 14.5077 23.4251 13.3668C21.2902 12.1045 20.1366 13.2194 18.9308 14.8693C15.3041 19.832 11.4561 24.6368 7.93658 29.6725C5.88422 32.6089 4.07571 31.8224 1.73694 30.1883C-0.775391 28.4328 -0.248108 26.7897 1.33655 24.8209C3.52399 22.1033 5.61536 19.3083 7.95633 16.2543C7.95633 16.2543 7.95633 16.2543 7.95633 16.2543Z" fill="#D99C2B" transform="translate(117.366 382.546)" />
    <path d="M28.9982 14.2397C20.3262 12.5888 12.0621 10.8851 3.755 9.42734C0.657837 8.88382 -0.481812 7.6944 0.182556 4.43427C0.891541 0.955719 3.12604 1.40616 5.45557 1.8327C11.3157 2.90564 17.1891 3.93243 23.0019 5.22638C25.9718 5.88751 28.2382 5.90799 29.0941 2.35352C29.5513 0.455261 30.6627 -0.436035 32.762 0.20752C34.7356 0.812592 35.3809 2.01593 34.9482 3.95847C34.3371 6.70105 33.7551 9.45004 33.1603 12.1963C32.6985 14.328 31.2376 14.6565 28.9982 14.2397C28.9982 14.2397 28.9982 14.2397 28.9982 14.2397Z" fill="#D99C2B" transform="translate(426.32 280.402)" />
    <path d="M32.377 12.5545C35.757 14.0743 35.164 16.0943 33.9279 18.4346C32.6678 20.8205 31.1051 20.6568 28.9742 19.6881C20.3492 15.7667 11.6746 11.9542 3.00955 8.12132C0.584106 7.04845 -0.939667 5.75481 0.654663 2.79637C2.09229 0.128799 3.75195 -0.736252 6.68787 0.662415C15.0914 4.66585 23.5801 8.49059 32.377 12.5545C32.377 12.5545 32.377 12.5545 32.377 12.5545Z" fill="#D99C2B" transform="translate(53.949 146.323)" />
    <path d="M20.904 2.73386C22.9809 1.94833 24.7364 1.39075 26.3875 0.611816C29.3843 -0.801971 31.0333 0.306122 32.1281 3.19635C33.1926 6.00677 31.8577 6.97479 29.4322 7.86713C21.4702 10.7962 13.5862 13.9371 5.67072 16.9928C3.39417 17.8716 1.62912 17.9193 0.514252 15.071C-0.589417 12.2513 0.0365906 10.7559 2.84686 9.71741C8.77768 7.52588 14.6432 5.15768 20.904 2.73386C20.904 2.73386 20.904 2.73386 20.904 2.73386Z" fill="#D99C2B" transform="translate(46.658 306.178)" />
  </g>
</svg>